<?xml version="1.0" encoding="UTF-8"?>
<svg id="LOGOS" xmlns="http://www.w3.org/2000/svg" viewBox="0 0 1300 1300">
  <defs>
    <style>
      .cls-1 {
        fill: #fe2c55;
      }

      .cls-2 {
        fill: #25f4ee;
      }
    </style>
  </defs>
  <path class="cls-2" d="M563.79,538.89v-34.76c-11.64-1.58-23.46-2.57-35.53-2.57-145.37,0-263.63,118.27-263.63,263.64,0,89.19,44.56,168.12,112.55,215.85-43.88-47.1-69.94-110.21-69.94-179.51,0-143.28,114.05-259.31,256.55-262.64Z"/>
  <path class="cls-2" d="M570.02,922.81c64.86,0,118.68-52.46,121.09-116.74l.19-573.15,103.98-.88c-2.18-11.79-3.38-23.93-3.38-36.35h-143.23l-.23,574.03c-2.41,64.28-55.31,115.87-120.17,115.87-20.16,0-39.14-5.04-55.85-13.83,21.88,30.33,57.43,51.05,97.6,51.05Z"/>
  <path class="cls-2" d="M991.17,427.82v-32.87c-40.01,0-77.27-11.89-108.52-32.27,27.82,31.96,65.62,55.95,108.52,65.13Z"/>
  <path class="cls-1" d="M882.66,362.69c-30.48-35.01-49-80.7-49-130.65h-38.37c10.1,54.57,42.49,101.39,87.37,130.65Z"/>
  <path class="cls-1" d="M528.27,644.78c-66.39,0-120.4,54.01-120.4,120.41,0,46.23,26.23,86.4,64.55,106.57-14.28-19.79-22.8-44.01-22.8-70.22,0-66.39,54.01-120.41,120.4-120.41,12.39,0,24.28,2.04,35.53,5.57v-146.23c-11.64-1.58-23.46-2.58-35.53-2.58-2.09,0-4.15.11-6.22.16v112.3c-11.25-3.52-23.13-5.57-35.53-5.57Z"/>
  <path class="cls-1" d="M991.17,426.87v111.32c-74.27,0-143.09-23.76-199.27-64.08v291.08c0,145.37-118.26,263.63-263.63,263.63-56.18,0-108.27-17.72-151.09-47.78,48.16,51.7,116.77,84.13,192.84,84.13,145.37,0,263.63-118.26,263.63-263.63v-291.08c56.18,40.32,125,64.08,199.27,64.08v-143.23c-14.32,0-28.28-1.55-41.75-4.43Z"/>
  <path d="M791.9,765.19v-291.08c56.18,40.32,125,64.08,199.27,64.08v-111.32c-42.9-9.18-80.69-32.22-108.52-64.18-44.88-29.26-77.27-76.08-87.37-130.65h-104.86l-.23,574.03c-2.41,64.28-55.31,115.87-120.17,115.87-40.17,0-75.72-19.85-97.6-50.18-38.32-20.17-64.55-60.34-64.55-106.57,0-66.39,54.01-120.41,120.4-120.41,12.39,0,24.28,2.04,35.53,5.57v-112.3c-142.5,3.33-257.41,120.2-257.41,263.48,0,69.3,26.92,132.4,70.8,179.51,42.82,30.06,94.91,47.78,151.09,47.78,145.37,0,263.63-118.26,263.63-263.63Z"/>
</svg>